<svg id="Logo" xmlns="http://www.w3.org/2000/svg" viewBox="0 0 533.66 221.09"><defs><style>.cls-1,.cls-2{fill:#fff;}.cls-1{fill-rule:evenodd;}</style></defs><path class="cls-1" d="M158,81.86a11.41,11.41,0,0,1-11.47,11.47A5.62,5.62,0,0,1,141,87.81c0-2.82,1.51-2.87,1.51-4.77a2.63,2.63,0,0,0-2.59-2.59,4.15,4.15,0,0,0-4.22,4.22v29.64a1,1,0,0,0,.86,1l2.92.87c.41.12,1,.43,1,1v2.38a1,1,0,0,1-1,1H120.66a1,1,0,0,1-1-1V106.13C114.36,111.64,103.59,122,98,122c-6.2,0-5.41-6.7-10.1-6.7-4.07,0-4.32,6.7-15.68,6.7C60,122,50,110.53,50,96.25S60,70.5,72.19,70.5c10,0,12.26,5.4,14.71,5.4,1.51,0,2.16-1.19,2.49-2.92a1.18,1.18,0,0,1,1.19-1h15.69a1,1,0,0,1,1,1v2.39c0,.53-.54.84-1,1l-2.92.86a1.08,1.08,0,0,0-.87,1v26.18a3.32,3.32,0,0,0,3.35,3.13c3.15,0,9.87-5.55,13.85-9.1V79.91a1.7,1.7,0,0,0-1.88-1.73c-1.18,0-1.23,1.08-2.76,1.08A2.29,2.29,0,0,1,112.76,77c0-2.06,3.68-6.5,9.41-6.5,9.91,0,8.39,7.36,11.91,7.36,3.18,0,3.73-7.36,12.43-7.36A11.32,11.32,0,0,1,158,81.86ZM86.46,88.35c0-3.24-4.43-6.49-8.54-6.49-7.57,0-12.44,5.94-12.44,14.39s4.87,14.49,12.44,14.49c4.11,0,8.54-3.25,8.54-6.48Zm76.48,16c0,12.6,9.57,16.18,16,16.18h32.87c7.44,0,14.55-5.42,14.55-14.2,0-13.25-20.44-12.06-20.44-19.66,0-3.08,3-4.18,6.73-4.18a17,17,0,0,1,8.81,2.84,1,1,0,0,0,1.52-.41l5-11.55a.93.93,0,0,0-.87-1.31H203.51a12.46,12.46,0,0,0-12.14,12.43c0,13.65,17.74,11.23,17.74,20.48a6.68,6.68,0,0,1-6.83,6.66c-7.84,0-11.14-5.25-11.5-8.27a1,1,0,0,0-1.33-.79l-3.26,1.3a1,1,0,0,0-.4,1.52,3.49,3.49,0,0,1,.88,2.45,3.86,3.86,0,1,1-7.72,0V39.88a1,1,0,0,0-1-1H159.15a1,1,0,0,0-1,1v2.38c0,.54.57.85,1,1l2.93.86a1.07,1.07,0,0,1,.86,1ZM428.13,73v2.39c0,.53-.55.84-1,1l-2.93.86a1.08,1.08,0,0,0-.86,1V128c0,12.11-10.22,21.85-22.29,21.85-8.21,0-15.46-3.79-19.15-10.06-5,8.87-21.09,27.91-68,27.91-25.86,0-69.78-12.77-92.62-12.77-31.35,0-52,8.5-73.56,30.07a1.1,1.1,0,0,1-1.55.28l-40.1-21.9a.94.94,0,0,1-.22-1.52c26.51-22.49,64.91-34.09,92.07-34.09C251,127.72,288,154,331.63,154c36.78,0,47.49-18.4,47.49-24.56a1,1,0,0,1,1-1h3.69a1,1,0,0,1,1,1c0,6.16,5.09,10.82,11.47,10.82s11.14-5,11.14-11.68v-9.53a1.53,1.53,0,0,0-1.68-1.72c-1.67,0-3.29,4.63-12.6,4.63-12.22,0-22.18-11.45-22.18-25.73s10-25.75,22.18-25.75c10,0,12.26,5.4,14.71,5.4,1.52,0,2.16-1.19,2.49-2.92a1.18,1.18,0,0,1,1.19-1h15.69A1,1,0,0,1,428.13,73ZM407.36,88.35c0-3.24-4.43-6.49-8.55-6.49-7.57,0-12.43,5.94-12.43,14.39s4.86,14.49,12.43,14.49c4.12,0,8.55-3.25,8.55-6.48ZM375.22,69.42c0,10-6.26,15.25-11.46,15.25-6.14,0-5.31-4.22-9.3-4.22a4.44,4.44,0,0,0-4.54,4.22v29.64a1,1,0,0,0,.86,1l2.92.87c.41.12,1,.43,1,1v2.38a1,1,0,0,1-1,1H334.88a1,1,0,0,1-1-1V85.11a3.57,3.57,0,0,0-3.89-3.9c-2,0-5.1,1.77-7.91,3.7-.21,10.65-9.78,18.7-24.66,18.7,0,2,4.65,9.62,13.84,9.62,5.41,0,9.48-1.94,12.28-5.63,1.29-1.68,4.37-1,2.93,2.33s-7.85,12-20.94,12a25.66,25.66,0,0,1-25.16-20.24A32.45,32.45,0,0,1,272.23,98v9c0,7.68-5.31,13.42-13.64,13.42h-7.78c-11.46,0-18.6-6.39-18.6-16.35V45.07a1.06,1.06,0,0,0-.88-1l-2.91-.86c-.43-.14-1-.44-1-1V39.88a1,1,0,0,1,1-1h18.82a1,1,0,0,1,1,1v65.67c0,4.77,4.66,6.82,8,6.82,3.68,0,8-1.41,8-6.5v-13L257.73,89a2.67,2.67,0,0,1-1.51-2.49V73a1,1,0,0,1,1-1h14.06a1,1,0,0,1,1,1V91.35a51.38,51.38,0,0,0,7.59,4.08A25.58,25.58,0,0,1,305.55,70.5c7.89,0,12.91,3.69,15.17,8.22,4.66-3.61,11.75-8.22,17.51-8.22,6.44,0,6.46,5.31,9.63,5.31a2,2,0,0,0,1.94-2.07c0-1.33-.65-2.32-.65-3.57,0-2.38,2.38-4.55,5-4.55,4.67,0,7.34,4.88,11.36,4.88a4.19,4.19,0,0,0,3.78-4.33c0-2.48-2.86-6.37-5.62-8.66-1.89-1.56.16-4.45,2.54-3.07C372.2,57.9,375.22,63.3,375.22,69.42ZM312.69,85.11c0-1.41-.44-5-5-5-5.41,0-11.14,6.49-11.14,17.41C307.07,97.54,312.69,89.2,312.69,85.11ZM353.47,25a2.22,2.22,0,0,1-2.23-2.22v-4.5a3,3,0,0,0-3-3,2.87,2.87,0,0,0-1.8.65,7,7,0,0,1-6.89,1,4.42,4.42,0,0,0-4.37,7.57,7,7,0,0,1,2.55,6.47,2.91,2.91,0,0,0,.35,1.9,3,3,0,0,0,4,1.08l3.9-2.26a2.22,2.22,0,1,1,2.22,3.85l-3.9,2.26a3,3,0,0,0-1.08,4,2.89,2.89,0,0,0,1.47,1.23,7,7,0,0,1,4.33,5.46,4.42,4.42,0,0,0,8.74,0,7,7,0,0,1,4.33-5.46A2.87,2.87,0,0,0,363.64,42a3,3,0,0,0-1.09-4l-3.9-2.26a2.22,2.22,0,0,1,2.22-3.85l3.9,2.26A3,3,0,0,0,368.82,33a3,3,0,0,0,.33-1.9,7,7,0,0,1,2.55-6.47A4.42,4.42,0,0,0,367.33,17a7,7,0,0,1-6.88-1,2.89,2.89,0,0,0-1.82-.65,3,3,0,0,0-2.95,3v4.5A2.21,2.21,0,0,1,353.47,25ZM119,126.8A51.8,51.8,0,0,1,84.45,140c-27.35,0-50.28-22.54-50.28-49.73,0-22.53,18.08-45.18,40.78-45.18,8.27,0,17.15,3.3,22.4,8.55a1,1,0,0,0,1.58-.08L126.8,16.85a.88.88,0,0,0-.66-1.49H42.57a3.42,3.42,0,0,0-2.22.86C21.08,33.49,8.46,56,8.46,82c0,38.44,30.76,68.16,67,68.16,18.11,0,35.15-8,47-19.85C125.18,127.59,121.85,124.13,119,126.8Z" transform="translate(-8.46 -15.36)"/><path class="cls-2" d="M219.91,174.4s12-.25,19-.25c22.13,0,27,7.35,27,30.81,0,24.38-5.17,31-29.81,31-5.26,0-11.19-.25-14.44-.5-1.25,0-1.75-.58-1.75-1.92Zm6.51,55.7s5.84.16,12,.16c16.53,0,20.71-4.26,20.71-25.46s-4.18-25.39-20.71-25.39c-4.34,0-12,.17-12,.17Z" transform="translate(-8.46 -15.36)"/><path class="cls-2" d="M307.16,235.44c-1.75,0-2.25-.25-2.76-1-.66-.92-.83-1.59-1.58-1.59s-1,.25-1.84.75a21.28,21.28,0,0,1-10.52,2.84c-9.68,0-17.45-6.76-17.45-22.38s8.52-22.62,17.45-22.62A21.28,21.28,0,0,1,301,194.28c.84.5,1.17.75,1.84.75s.92-.67,1.58-1.59c.51-.75,1-1,2.76-1h2.34v43Zm-3.84-33.32c0-.91,0-1.08-.92-1.83a15.17,15.17,0,0,0-9.6-3.34c-7.27,0-13.19,4.34-13.19,17,0,11,4.34,17,12.86,17a14.86,14.86,0,0,0,9.93-3.34c.75-.67.92-.83.92-1.75Z" transform="translate(-8.46 -15.36)"/><path class="cls-2" d="M349.74,235.44c-1.25,0-1.75-.58-1.75-1.92V207.47c0-7.6-2.5-10.52-10.69-10.52a17,17,0,0,0-10.68,3.34c-.92.75-.92.83-.92,1.75v33.4h-4.43c-1.25,0-1.75-.58-1.75-1.92V192.44h2.34c1.75,0,2.25.25,2.75,1,.67.92.84,1.59,1.59,1.59s1-.25,1.84-.75a21.24,21.24,0,0,1,10.51-2.84c10.36,0,15.62,4.59,15.62,14.36v29.64Z" transform="translate(-8.46 -15.36)"/><path class="cls-2" d="M420.64,235.44c-1.26,0-1.76-.58-1.76-1.92V207.47c0-7.6-2.25-10.52-10.19-10.52a16.11,16.11,0,0,0-10.27,3.34c-.91.75-.91.83-.91,1.75v33.4h-4.43c-1.25,0-1.75-.58-1.75-1.92V207.47c0-7.6-2.26-10.52-10.19-10.52a16.09,16.09,0,0,0-10.27,3.34c-.92.75-.92.83-.92,1.75v33.4h-4.42c-1.26,0-1.76-.58-1.76-1.92V192.44h2.34c1.75,0,2.25.25,2.76,1,.66.92.83,1.59,1.58,1.59s1-.25,1.84-.75a20.43,20.43,0,0,1,10.1-2.84c5.18,0,8.77,1.25,10.86,3.09,1,.91,1.5,1.75,2.25,1.75s1-.25,1.84-.75A22,22,0,0,1,410,191.44c10.1,0,15.11,4.59,15.11,14.36v29.64Z" transform="translate(-8.46 -15.36)"/><path class="cls-2" d="M466.73,235.44c-1.76,0-2.26-.25-2.76-1-.67-.92-.83-1.59-1.58-1.59a3.29,3.29,0,0,0-1.84.75A21.31,21.31,0,0,1,450,236.44c-9.69,0-17.46-6.76-17.46-22.38s8.52-22.62,17.46-22.62a21.31,21.31,0,0,1,10.52,2.84,3.29,3.29,0,0,0,1.84.75c.75,0,.91-.67,1.58-1.59.5-.75,1-1,2.76-1h2.33v43Zm-3.84-33.32c0-.91,0-1.08-.92-1.83a15.21,15.21,0,0,0-9.61-3.34c-7.26,0-13.19,4.34-13.19,17,0,11,4.34,17,12.86,17a14.9,14.9,0,0,0,9.94-3.34c.75-.67.92-.83.92-1.75Z" transform="translate(-8.46 -15.36)"/><path class="cls-2" d="M480.84,235.44c-1.26,0-1.76-.58-1.76-1.92V192.44h2.34c1.75,0,2.26.25,2.76,1,.66.92.83,1.59,1.58,1.59a3.29,3.29,0,0,0,1.84-.75,21.31,21.31,0,0,1,10.52-2.84c.67,0,1.59.08,1.59.08v5.93a35.49,35.49,0,0,0-3.68-.25,16.12,16.12,0,0,0-9.85,3.34c-.92.75-.92.83-.92,1.75v33.15Z" transform="translate(-8.46 -15.36)"/><path class="cls-2" d="M535.7,235.44c-1.26,0-1.76-.33-2.68-1.67L518.66,213.9h-6.51v21.54h-4.43c-1.25,0-1.75-.58-1.75-1.92V174.74h4.42c1.26,0,1.76.58,1.76,1.92v31.48h6.93l11.1-14c.92-1.34,1.42-1.67,2.68-1.67h6.26L524.26,211l17.87,24.47Z" transform="translate(-8.46 -15.36)"/></svg>